<svg width="115" height="32" viewBox="0 0 115 32" fill="none" xmlns="http://www.w3.org/2000/svg">
<g clip-path="url(#clip0_426_882)">
<g clip-path="url(#clip1_426_882)">
<path d="M36.8252 7.97246L23.0157 31.8928H13.8095L9.2063 23.9174H18.4126L23.0157 15.9449L18.4126 7.97246H27.6188L32.2221 0L36.8252 7.97246Z" fill="#0048FF"/>
<path d="M18.4126 7.97246L13.8125 15.9449L9.20926 23.9174L0 7.97246H9.20926L13.8125 0L18.4126 7.97246Z" fill="#0048FF"/>
<path d="M55.2378 7.97246L41.4283 31.8928H32.2221L27.619 23.9174H36.8252L50.6347 0L55.2378 7.97246Z" fill="#0048FF"/>
<path d="M67.0985 8.34911L65.6512 2.93329L64.2038 8.34911H62.5429L60.5557 0.602057H62.1544L63.4059 5.85771L64.8296 0.602057H66.5024L67.8845 5.87847L69.1481 0.602057H70.7556L68.7596 8.34911H67.0985Z" fill="#FAFAFA"/>
<path d="M76.8951 6.92545V8.34911H71.684V0.602057H76.821V2.02571H73.3242V3.65402H76.4976V5.06878H73.3242V6.92545H76.8951Z" fill="#FAFAFA"/>
<path d="M83.177 8.34911H78.1705V0.602057H79.8106V6.87207H83.177V8.35207V8.34911Z" fill="#FAFAFA"/>
<path d="M89.3076 8.34911H84.3011V0.602057H85.9413V6.87207H89.3076V8.35207V8.34911Z" fill="#FAFAFA"/>
<path d="M63.9694 19.7442H61.2171V11.9971H63.9694C64.7911 11.9971 65.494 12.1602 66.0842 12.4836C66.6744 12.8069 67.1283 13.2576 67.4455 13.833C67.7629 14.4084 67.9202 15.0758 67.9202 15.8292C67.9202 16.5825 67.757 17.2469 67.4338 17.843C67.1104 18.4362 66.6506 18.9019 66.0575 19.24C65.4643 19.5781 64.7673 19.7472 63.9694 19.7472V19.7442ZM62.8573 13.4119V18.3324H63.8834C64.4026 18.3324 64.8356 18.2345 65.1826 18.0417C65.5325 17.849 65.7935 17.5642 65.9715 17.1905C66.1465 16.8168 66.2355 16.3631 66.2355 15.8292C66.2355 15.2953 66.1465 14.8742 65.9715 14.5123C65.7965 14.1534 65.5325 13.8805 65.1826 13.6936C64.8326 13.5069 64.3996 13.4119 63.8834 13.4119H62.8573Z" fill="#FAFAFA"/>
<path d="M72.5706 19.9074C72.0101 19.9074 71.4911 19.8066 71.0106 19.6049C70.5331 19.4032 70.1119 19.1215 69.7531 18.7566C69.3942 18.3948 69.1124 17.9647 68.9107 17.4724C68.709 16.98 68.6082 16.4432 68.6082 15.8589C68.6082 15.2746 68.709 14.7407 68.9107 14.2513C69.1124 13.762 69.3942 13.3378 69.7531 12.9789C70.1119 12.6201 70.5331 12.3383 71.0106 12.1367C71.4881 11.9349 72.0101 11.8341 72.5706 11.8341C73.1313 11.8341 73.6533 11.9349 74.1367 12.1367C74.6172 12.3383 75.0413 12.6201 75.4061 12.9789C75.768 13.3378 76.0527 13.762 76.2544 14.2513C76.4561 14.7407 76.5569 15.2776 76.5569 15.8589C76.5569 16.4403 76.4561 16.98 76.2544 17.4724C76.0527 17.9647 75.771 18.3918 75.4061 18.7566C75.0413 19.1215 74.6202 19.4032 74.1367 19.6049C73.6533 19.8066 73.1343 19.9074 72.5706 19.9074ZM72.5706 18.4393C72.9236 18.4393 73.241 18.3741 73.5257 18.2406C73.8104 18.1071 74.0507 17.9232 74.2494 17.6859C74.4482 17.4487 74.5994 17.1728 74.7032 16.8614C74.8071 16.5499 74.8603 16.2148 74.8603 15.8649C74.8603 15.5149 74.8071 15.1826 74.7032 14.8712C74.5994 14.5627 74.4482 14.29 74.2494 14.0556C74.0507 13.8213 73.8104 13.6374 73.5257 13.5039C73.241 13.3704 72.9236 13.3052 72.5706 13.3052C72.2178 13.3052 71.9004 13.3734 71.6216 13.5039C71.3399 13.6374 71.1025 13.8213 70.9038 14.0556C70.7051 14.29 70.5538 14.5598 70.4501 14.8712C70.3462 15.1797 70.2928 15.5119 70.2928 15.8649C70.2928 16.2178 70.3462 16.5499 70.4501 16.8614C70.5538 17.1758 70.7051 17.4487 70.9038 17.6859C71.1025 17.9232 71.3399 18.1101 71.6216 18.2406C71.9034 18.3741 72.2178 18.4393 72.5706 18.4393Z" fill="#FAFAFA"/>
<path d="M82.735 19.7442L79.1847 14.3373V19.7442H77.684V11.9971H79.4547L82.8329 17.1342V11.9971H84.3426V19.7442H82.735Z" fill="#FAFAFA"/>
<path d="M91.1523 18.3205V19.7442H85.9412V11.9971H91.0782V13.4208H87.5814V15.0492H90.7548V16.4638H87.5814V18.3205H91.1523Z" fill="#FAFAFA"/>
<path d="M64.0763 28.7667H62.8573V31.2906H61.2171V23.5437H64.0763C64.708 23.5437 65.2537 23.6415 65.7105 23.8343C66.1673 24.0271 66.5201 24.3177 66.7664 24.6973C67.0155 25.08 67.14 25.5546 67.14 26.121C67.14 26.6875 67.0155 27.1591 66.7664 27.5565C66.5173 27.951 66.1643 28.2535 65.7105 28.4582C65.2537 28.6628 64.708 28.7667 64.0763 28.7667ZM64.0673 24.9257H62.8603V27.3845H64.0673C64.5271 27.3845 64.883 27.2718 65.1351 27.0434C65.3872 26.818 65.5117 26.5125 65.5117 26.1329C65.5117 25.7532 65.3872 25.4537 65.1351 25.2431C64.883 25.0326 64.5271 24.9257 64.0673 24.9257Z" fill="#FAFAFA"/>
<path d="M69.8925 31.2906H68.2523V23.5437H71.2835C72.2623 23.5437 73.0216 23.7602 73.5613 24.1962C74.1012 24.6321 74.3711 25.252 74.3711 26.0557C74.3711 26.5749 74.2168 27.0316 73.9113 27.432C73.6058 27.8324 73.1758 28.12 72.6212 28.301L74.6172 31.2906H72.6627L70.9157 28.5502H69.8896V31.2906H69.8925ZM69.8925 24.9021V27.2006H71.2094C71.7048 27.2006 72.0844 27.1057 72.3424 26.9159C72.6004 26.7261 72.7309 26.4384 72.7309 26.0587C72.7309 25.6791 72.6004 25.3796 72.3424 25.1897C72.0844 24.9998 71.7048 24.905 71.2094 24.905H69.8925V24.9021Z" fill="#FAFAFA"/>
<path d="M79.1077 31.4539C78.5471 31.4539 78.028 31.353 77.5475 31.1513C77.07 30.9497 76.6489 30.6679 76.29 30.303C75.9311 29.9413 75.6494 29.5111 75.4477 29.0189C75.246 28.5265 75.1451 27.9896 75.1451 27.4053C75.1451 26.8211 75.246 26.2872 75.4477 25.7978C75.6494 25.3084 75.9311 24.8843 76.29 24.5254C76.6489 24.1665 77.07 23.8847 77.5475 23.6831C78.0251 23.4815 78.5471 23.3806 79.1077 23.3806C79.6682 23.3806 80.1902 23.4815 80.6736 23.6831C81.1541 23.8847 81.5783 24.1665 81.9431 24.5254C82.3049 24.8843 82.5897 25.3084 82.7914 25.7978C82.993 26.2872 83.0939 26.8241 83.0939 27.4053C83.0939 27.9867 82.993 28.5265 82.7914 29.0189C82.5897 29.5111 82.3079 29.9383 81.9431 30.303C81.5783 30.6679 81.1571 30.9497 80.6736 31.1513C80.1902 31.353 79.6712 31.4539 79.1077 31.4539ZM79.1077 29.9858C79.4606 29.9858 79.778 29.9205 80.0627 29.787C80.3475 29.6535 80.5876 29.4696 80.7864 29.2324C80.9851 28.9951 81.1364 28.7192 81.2401 28.4079C81.344 28.0965 81.3974 27.7612 81.3974 27.4113C81.3974 27.0613 81.344 26.7292 81.2401 26.4177C81.1364 26.1093 80.9851 25.8364 80.7864 25.602C80.5876 25.3678 80.3475 25.1839 80.0627 25.0504C79.778 24.9169 79.4606 24.8516 79.1077 24.8516C78.7547 24.8516 78.4373 24.9199 78.1586 25.0504C77.8768 25.1839 77.6395 25.3678 77.4408 25.602C77.242 25.8364 77.0908 26.1063 76.987 26.4177C76.8832 26.7262 76.8298 27.0583 76.8298 27.4113C76.8298 27.7642 76.8832 28.0965 76.987 28.4079C77.0908 28.7222 77.242 28.9951 77.4408 29.2324C77.6395 29.4696 77.8768 29.6565 78.1586 29.787C78.4403 29.9205 78.7547 29.9858 79.1077 29.9858Z" fill="#FAFAFA"/>
<path d="M86.9764 31.2906H84.2239V23.5437H86.9764C87.7979 23.5437 88.5008 23.7068 89.0911 24.03C89.6812 24.3533 90.1351 24.8042 90.4525 25.3796C90.7697 25.955 90.927 26.6223 90.927 27.3756C90.927 28.129 90.7639 28.7933 90.4406 29.3894C90.1172 29.9827 89.6576 30.4483 89.0643 30.7865C88.4712 31.1246 87.7742 31.2936 86.9764 31.2936V31.2906ZM85.8641 24.9554V29.8759H86.8903C87.4094 29.8759 87.8424 29.7781 88.1894 29.5852C88.5394 29.3924 88.8004 29.1077 88.9783 28.734C89.1533 28.3603 89.2423 27.9065 89.2423 27.3726C89.2423 26.8388 89.1533 26.4176 88.9783 26.0557C88.8033 25.6969 88.5394 25.4241 88.1894 25.2372C87.8394 25.0503 87.4064 24.9554 86.8903 24.9554H85.8641Z" fill="#FAFAFA"/>
<path d="M98.4249 23.5437V28.3455C98.4249 28.9564 98.3003 29.4963 98.0542 29.9648C97.805 30.4335 97.4432 30.7983 96.9686 31.0593C96.4941 31.3232 95.9187 31.4539 95.2425 31.4539C94.5662 31.4539 93.9789 31.3232 93.5044 31.0593C93.0298 30.7954 92.668 30.4306 92.4189 29.9648C92.1698 29.4992 92.0451 28.9594 92.0451 28.3455V23.5437H93.6853V28.3782C93.6853 28.6954 93.7387 28.9743 93.8484 29.2204C93.9552 29.4637 94.1243 29.6534 94.3497 29.7869C94.5751 29.9204 94.8717 29.9857 95.2395 29.9857C95.6072 29.9857 95.892 29.9204 96.1204 29.7869C96.3487 29.6534 96.5149 29.4637 96.6216 29.2204C96.7284 28.9743 96.7848 28.6954 96.7848 28.3782V23.5437H98.4249Z" fill="#FAFAFA"/>
<path d="M111.751 31.2908H110.111V25.0208H107.673V23.5408H114.201V25.0208H111.751V31.2908Z" fill="#FAFAFA"/>
<path d="M105.546 27.9926C105.475 28.2832 105.359 28.5442 105.196 28.7786C104.997 29.0633 104.748 29.2857 104.446 29.4488C104.143 29.609 103.808 29.6921 103.443 29.6921C103.105 29.6921 102.803 29.6297 102.533 29.5022C102.263 29.3777 102.028 29.1967 101.833 28.9683C101.634 28.7371 101.483 28.4671 101.379 28.1527C101.275 27.8413 101.222 27.4913 101.222 27.1117C101.222 26.732 101.275 26.3939 101.379 26.0825C101.483 25.7681 101.634 25.4982 101.833 25.2669C102.031 25.0355 102.266 24.8605 102.533 24.739C102.803 24.6173 103.105 24.5551 103.443 24.5551C103.811 24.5551 104.143 24.6351 104.443 24.7923C104.742 24.9495 104.994 25.172 105.199 25.4507C105.368 25.6821 105.484 25.9461 105.552 26.2426H107.299C107.198 25.6584 106.985 25.1394 106.661 24.6856C106.302 24.1813 105.843 23.7898 105.285 23.5081C104.728 23.2263 104.108 23.0869 103.422 23.0869C102.883 23.0869 102.375 23.1907 101.901 23.3953C101.426 23.6001 101.011 23.8877 100.661 24.2525C100.308 24.6203 100.032 25.0445 99.8367 25.5309C99.6379 26.0173 99.5401 26.5423 99.5401 27.1117C99.5401 27.6812 99.6379 28.2091 99.8367 28.6984C100.035 29.1878 100.308 29.618 100.661 29.9886C101.014 30.3594 101.426 30.6471 101.901 30.8517C102.375 31.0564 102.883 31.1601 103.422 31.1601C104.105 31.1601 104.725 31.0208 105.279 30.739C105.834 30.4572 106.291 30.0657 106.649 29.5616C106.976 29.1077 107.189 28.5828 107.296 27.9926H105.546Z" fill="#FAFAFA"/>
</g>
</g>
<defs>
<clipPath id="clip0_426_882">
<rect width="114.201" height="32" fill="white"/>
</clipPath>
<clipPath id="clip1_426_882">
<rect width="114.201" height="32" fill="white"/>
</clipPath>
</defs>
</svg>
