<svg xmlns="http://www.w3.org/2000/svg" width="68" height="32" fill="none" viewBox="0 0 68 32"><g fill="#d51224" clip-path="url(#a)"><path d="M3.058 29.806a.73.73 0 0 0-.292-.23.9.9 0 0 0-.363-.08.97.97 0 0 0-.939.671 1.26 1.26 0 0 0-.004.836q.07.193.2.338a1 1 0 0 0 .319.23q.187.084.426.083.236.002.41-.096a.9.9 0 0 0 .297-.268l.31.232a1.1 1.1 0 0 1-.31.277 1.5 1.5 0 0 1-.304.139 1.3 1.3 0 0 1-.411.06q-.322.001-.581-.125a1.4 1.4 0 0 1-.44-.321A1.408 1.408 0 0 1 1 30.595q0-.313.102-.58a1.4 1.4 0 0 1 .29-.459q.183-.193.446-.299a1.48 1.48 0 0 1 1.101-.006 1 1 0 0 1 .424.317l-.305.235zM3.738 30.115h.346v.279h.006a.607.607 0 0 1 .378-.3.6.6 0 0 1 .167-.024q.082 0 .152.024l-.016.372q-.04-.012-.084-.02a1 1 0 0 0-.085-.006q-.252 0-.387.14-.135.142-.135.443v.91h-.346v-1.814zM5.307 31.151q0 .118.052.217.053.099.137.167.083.07.195.107.11.039.231.038a.53.53 0 0 0 .28-.075 1 1 0 0 0 .218-.198l.262.198q-.287.372-.806.372-.213-.001-.388-.072a.857.857 0 0 1-.482-.502 1 1 0 0 1-.065-.378q-.001-.204.07-.376.073-.174.196-.305a.9.9 0 0 1 .297-.2.9.9 0 0 1 .376-.074q.24 0 .408.085t.275.219c.07.09.125.193.155.307q.048.172.048.346v.124H5.307m1.09-.275a.7.7 0 0 0-.037-.21.442.442 0 0 0-.261-.277.6.6 0 0 0-.227-.041.6.6 0 0 0-.233.046.58.58 0 0 0-.29.297.45.45 0 0 0-.04.185H6.4zM7.15 30.338a1 1 0 0 1 .337-.201q.189-.067.382-.067c.128 0 .247.016.341.05a.7.7 0 0 1 .235.133.5.5 0 0 1 .137.195q.045.108.044.23v.925q-.001.097.004.177.002.078.01.153h-.305a4 4 0 0 1-.01-.275h-.008a.65.65 0 0 1-.272.249.9.9 0 0 1-.363.072.9.9 0 0 1-.241-.034.519.519 0 0 1-.338-.273.55.55 0 0 1-.05-.237.53.53 0 0 1 .078-.296.6.6 0 0 1 .215-.193q.138-.075.318-.106.181-.034.39-.034h.25v-.075a.37.37 0 0 0-.106-.263.4.4 0 0 0-.135-.088.656.656 0 0 0-.366-.012.65.65 0 0 0-.248.114q-.05.038-.095.075l-.207-.217zm.97.72q-.121 0-.25.013-.129.014-.235.052a.46.46 0 0 0-.172.109.24.24 0 0 0-.069.175q-.001.156.107.227.105.07.285.07a.6.6 0 0 0 .241-.048.44.44 0 0 0 .161-.125.5.5 0 0 0 .088-.17.7.7 0 0 0 .027-.186v-.114h-.185zM10.064 30.417H9.57v.824q-.001.076.004.15.002.075.03.135.024.057.076.095a.26.26 0 0 0 .15.036 1 1 0 0 0 .13-.01.3.3 0 0 0 .116-.042v.315a.5.5 0 0 1-.159.048 1 1 0 0 1-.15.012.7.7 0 0 1-.308-.056.4.4 0 0 1-.16-.142.5.5 0 0 1-.063-.197 3 3 0 0 1-.01-.22v-.948h-.398v-.297h.398v-.51h.346v.51h.494v.297zM10.416 29.464q0-.1.076-.177a.247.247 0 0 1 .356 0 .25.25 0 0 1 0 .356.246.246 0 0 1-.356 0 .24.24 0 0 1-.076-.179m.08.653h.346v1.815h-.346zM11.13 30.117h.399l.542 1.39.52-1.39h.369l-.714 1.815h-.38l-.737-1.815zM13.487 31.151q0 .118.052.217.051.099.137.167a.686.686 0 0 0 .424.145.5.5 0 0 0 .28-.075 1 1 0 0 0 .218-.198l.26.198q-.288.372-.804.372-.217-.001-.39-.072a.853.853 0 0 1-.48-.502 1 1 0 0 1-.067-.378 1 1 0 0 1 .265-.681.85.85 0 0 1 .298-.2.9.9 0 0 1 .376-.074.9.9 0 0 1 .41.085.82.82 0 0 1 .43.526q.047.172.046.346v.124zm1.089-.275a.7.7 0 0 0-.036-.21.43.43 0 0 0-.26-.278.6.6 0 0 0-.226-.04.55.55 0 0 0-.523.343.45.45 0 0 0-.042.185h1.09zM18.812 31.935h-.495l-.333-.36a1.4 1.4 0 0 1-.368.317.9.9 0 0 1-.464.113 1.1 1.1 0 0 1-.4-.066.8.8 0 0 1-.277-.18.7.7 0 0 1-.161-.248.8.8 0 0 1-.052-.29.7.7 0 0 1 .048-.257.8.8 0 0 1 .135-.213q.084-.097.197-.173a1.5 1.5 0 0 1 .235-.134 2 2 0 0 1-.225-.284.63.63 0 0 1-.095-.345.6.6 0 0 1 .217-.47.7.7 0 0 1 .231-.123.97.97 0 0 1 .545-.006q.128.039.225.114a.6.6 0 0 1 .15.193.6.6 0 0 1 .055.268q0 .126-.048.23a.84.84 0 0 1-.312.344 2 2 0 0 1-.203.12l.535.56.341-.555h.418l-.524.814.617.63zm-1.7-1.28c-.052.03-.109.064-.163.098a1 1 0 0 0-.147.119.5.5 0 0 0-.106.148.4.4 0 0 0-.04.185q0 .102.042.187a.53.53 0 0 0 .653.257.8.8 0 0 0 .16-.078 1 1 0 0 0 .137-.109q.065-.06.117-.124l-.655-.681zm.508-.867q0-.134-.092-.212a.35.35 0 0 0-.237-.079.4.4 0 0 0-.254.08.28.28 0 0 0-.108.236q0 .071.026.13c.016.04.038.083.064.119a1 1 0 0 0 .087.106q.044.05.092.097.069-.04.143-.085a.8.8 0 0 0 .136-.102.5.5 0 0 0 .103-.129q.04-.069.04-.163zM22.077 29.806a.73.73 0 0 0-.291-.23.9.9 0 0 0-.364-.08.97.97 0 0 0-.733.322 1 1 0 0 0-.205.35 1.26 1.26 0 0 0-.002.835q.067.193.199.338.128.143.317.23.189.084.426.083c.159 0 .291-.03.41-.096a.9.9 0 0 0 .3-.268l.309.232a1.1 1.1 0 0 1-.312.277 1.5 1.5 0 0 1-.305.139 1.3 1.3 0 0 1-.412.06q-.321.001-.579-.125a1.406 1.406 0 0 1-.717-.77 1.4 1.4 0 0 1-.096-.508q.001-.313.102-.58.105-.267.291-.459.186-.193.447-.299a1.47 1.47 0 0 1 1.1-.006 1 1 0 0 1 .425.317l-.308.235zM22.67 31.025q0-.2.074-.372a.949.949 0 0 1 .89-.583.954.954 0 1 1 0 1.907.979.979 0 0 1-.685-.277.934.934 0 0 1-.28-.675m.368 0a.7.7 0 0 0 .042.255.6.6 0 0 0 .118.199.5.5 0 0 0 .187.13.6.6 0 0 0 .25.049c.09 0 .176-.014.25-.049a.54.54 0 0 0 .306-.329.8.8 0 0 0 .042-.255.8.8 0 0 0-.042-.255.6.6 0 0 0-.118-.2.58.58 0 0 0-.439-.176.6.6 0 0 0-.249.048.6.6 0 0 0-.187.129.6.6 0 0 0-.118.199.7.7 0 0 0-.042.255M24.994 30.119h.322v.283h.006a.3.3 0 0 1 .058-.097.6.6 0 0 1 .123-.108.8.8 0 0 1 .176-.088.6.6 0 0 1 .225-.039q.205 0 .342.085.138.084.227.253a.57.57 0 0 1 .25-.253.768.768 0 0 1 .67-.016.6.6 0 0 1 .207.183q.078.112.107.255.03.144.03.297v1.057h-.346v-1.01q0-.105-.014-.202a.5.5 0 0 0-.054-.166.3.3 0 0 0-.119-.119.4.4 0 0 0-.202-.044q-.25 0-.356.152a.67.67 0 0 0-.109.394v.993h-.343v-.948q0-.132-.014-.238a.5.5 0 0 0-.052-.184.3.3 0 0 0-.117-.123.4.4 0 0 0-.201-.044.46.46 0 0 0-.332.145.6.6 0 0 0-.102.184.9.9 0 0 0-.038.266v.942h-.344v-1.814zM28.22 30.119h.322v.283h.008a.3.3 0 0 1 .06-.097.6.6 0 0 1 .123-.108.8.8 0 0 1 .177-.088.6.6 0 0 1 .225-.039q.203 0 .342.085.137.084.225.253a.6.6 0 0 1 .249-.253.774.774 0 0 1 .67-.016q.135.071.21.183t.107.255q.028.144.028.297v1.057h-.346v-1.01q0-.105-.014-.202a.4.4 0 0 0-.056-.166.33.33 0 0 0-.119-.119.4.4 0 0 0-.203-.044q-.25 0-.356.152a.7.7 0 0 0-.106.394v.993h-.344v-.948q0-.132-.014-.238a.5.5 0 0 0-.054-.184.3.3 0 0 0-.114-.123.4.4 0 0 0-.203-.044.5.5 0 0 0-.18.036.4.4 0 0 0-.15.108.5.5 0 0 0-.104.185.9.9 0 0 0-.039.266v.942h-.345v-1.814zM33.053 31.934h-.344v-.278h-.008a.5.5 0 0 1-.225.234.7.7 0 0 1-.372.09.8.8 0 0 1-.253-.04.55.55 0 0 1-.351-.342.8.8 0 0 1-.055-.311v-1.17h.346v1.073a.6.6 0 0 0 .034.217.4.4 0 0 0 .093.145.3.3 0 0 0 .132.08q.074.024.155.024.108.001.199-.034a.4.4 0 0 0 .16-.108.5.5 0 0 0 .107-.19.8.8 0 0 0 .038-.27v-.935h.344zM33.537 30.117h.344v.279h.008a.5.5 0 0 1 .225-.235.75.75 0 0 1 .372-.09q.128 0 .25.04a.56.56 0 0 1 .356.341.8.8 0 0 1 .055.314v1.167H34.8V30.86a.6.6 0 0 0-.034-.217.4.4 0 0 0-.093-.145.3.3 0 0 0-.132-.08.5.5 0 0 0-.155-.026.6.6 0 0 0-.199.034.4.4 0 0 0-.16.11.5.5 0 0 0-.107.19.9.9 0 0 0-.038.273v.932h-.344v-1.815zM35.576 29.464q0-.1.075-.177a.247.247 0 0 1 .356 0q.075.075.076.177a.24.24 0 0 1-.077.179.24.24 0 0 1-.179.076.24.24 0 0 1-.176-.076.24.24 0 0 1-.075-.179m.08.653h.346v1.815h-.346zM37.808 30.6a.57.57 0 0 0-.452-.203.6.6 0 0 0-.247.053.548.548 0 0 0-.283.35.8.8 0 0 0-.036.24q0 .125.042.242a.559.559 0 0 0 .544.378.55.55 0 0 0 .248-.05.6.6 0 0 0 .19-.153l.246.245a.75.75 0 0 1-.314.215 1.1 1.1 0 0 1-.378.064c-.134 0-.269-.022-.383-.068a.84.84 0 0 1-.496-.49 1.1 1.1 0 0 1-.07-.386q.001-.211.07-.388a.88.88 0 0 1 .492-.5q.174-.072.387-.07.2-.002.382.07a.8.8 0 0 1 .316.214l-.262.238zM38.325 30.338q.146-.133.335-.201a1.2 1.2 0 0 1 .728-.017.7.7 0 0 1 .235.133q.092.083.135.195a.6.6 0 0 1 .044.23v.925q-.001.097.004.177.005.078.012.153h-.305a4 4 0 0 1-.01-.275h-.009a.67.67 0 0 1-.273.249.9.9 0 0 1-.364.072.9.9 0 0 1-.24-.034.6.6 0 0 1-.202-.102.5.5 0 0 1-.134-.171.5.5 0 0 1-.05-.237q0-.175.078-.296a.6.6 0 0 1 .213-.193 1 1 0 0 1 .32-.106q.18-.034.387-.034h.253v-.075a.4.4 0 0 0-.028-.138.38.38 0 0 0-.215-.213.656.656 0 0 0-.5.036.6.6 0 0 0-.113.066l-.094.075-.207-.217zm.972.72q-.12 0-.249.013-.13.014-.235.052a.46.46 0 0 0-.173.109.24.24 0 0 0-.066.175q0 .156.105.227.106.07.285.07a.6.6 0 0 0 .241-.048.45.45 0 0 0 .25-.296.7.7 0 0 0 .027-.184v-.115h-.184zM41.242 30.417h-.493v.824q0 .076.002.15a.4.4 0 0 0 .03.135q.025.057.077.095a.26.26 0 0 0 .15.036 1 1 0 0 0 .129-.01.4.4 0 0 0 .119-.042v.315a.5.5 0 0 1-.157.048 1 1 0 0 1-.153.012.7.7 0 0 1-.307-.056.39.39 0 0 1-.221-.34 3 3 0 0 1-.01-.218v-.949h-.398v-.297h.398v-.51h.345v.51h.493v.297zM41.594 29.464q0-.1.076-.177a.24.24 0 0 1 .179-.076q.104 0 .179.076a.25.25 0 0 1 0 .356.24.24 0 0 1-.179.076.24.24 0 0 1-.179-.076.24.24 0 0 1-.076-.179m.08.653h.344v1.815h-.344zM42.44 31.025a.953.953 0 0 1 .964-.955.955.955 0 0 1 .964.955q-.002.198-.072.373a.955.955 0 0 1-.892.58.989.989 0 0 1-.687-.277.934.934 0 0 1-.277-.675m.37 0q-.002.138.041.255a.55.55 0 0 0 .308.33.6.6 0 0 0 .247.048.6.6 0 0 0 .247-.049.55.55 0 0 0 .308-.329.8.8 0 0 0 .042-.255.8.8 0 0 0-.042-.255.54.54 0 0 0-.308-.328.6.6 0 0 0-.247-.048.6.6 0 0 0-.247.048.6.6 0 0 0-.189.129.6.6 0 0 0-.119.199.7.7 0 0 0-.042.255M44.766 30.117h.343v.279h.008a.5.5 0 0 1 .225-.235.812.812 0 0 1 .623-.05.56.56 0 0 1 .356.341.9.9 0 0 1 .052.314v1.167h-.343V30.86a.6.6 0 0 0-.037-.217.4.4 0 0 0-.09-.145.34.34 0 0 0-.133-.08.5.5 0 0 0-.154-.026.6.6 0 0 0-.2.034.44.44 0 0 0-.16.11.5.5 0 0 0-.107.19.9.9 0 0 0-.038.273v.932h-.343v-1.815zM48.82 29.219h.334l1.162 2.71h-.43l-.272-.669h-1.292l-.269.67h-.428zm.662 1.72-.507-1.246h-.008l-.514 1.246h1.029M50.543 30.115h.344v.279h.008a.572.572 0 0 1 .221-.233.63.63 0 0 1 .323-.09q.084 0 .153.023l-.016.372-.085-.02a1 1 0 0 0-.084-.006q-.255 0-.388.14-.132.142-.132.443v.91h-.344v-1.819M52.894 30.417H52.4v.824q-.001.076.004.15.002.075.028.135.027.057.078.095a.26.26 0 0 0 .15.036q.061.001.127-.01a.4.4 0 0 0 .121-.042v.315a.5.5 0 0 1-.159.048 1 1 0 0 1-.15.012.7.7 0 0 1-.308-.056.4.4 0 0 1-.16-.142.5.5 0 0 1-.063-.197 3 3 0 0 1-.01-.22v-.948h-.398v-.297h.398v-.51h.344v.51h.494v.297zM54.414 29.219h.37v2.71h-.37zM55.352 30.117h.345v.279h.006a.5.5 0 0 1 .227-.235.74.74 0 0 1 .372-.09.8.8 0 0 1 .25.04.56.56 0 0 1 .355.341.8.8 0 0 1 .054.314v1.167h-.343V30.86a.6.6 0 0 0-.035-.217.4.4 0 0 0-.092-.145.34.34 0 0 0-.133-.08.5.5 0 0 0-.156-.026.6.6 0 0 0-.2.034.4.4 0 0 0-.16.11.5.5 0 0 0-.107.19.9.9 0 0 0-.038.273v.932h-.345zM58.408 30.573a.5.5 0 0 0-.15-.129.44.44 0 0 0-.22-.052.4.4 0 0 0-.21.052.16.16 0 0 0-.091.15c0 .053.016.1.052.131a.4.4 0 0 0 .123.079q.071.032.153.048l.136.026q.112.026.21.064a.6.6 0 0 1 .166.099q.072.062.11.15.043.089.043.216 0 .153-.065.263a.6.6 0 0 1-.168.177.8.8 0 0 1-.236.1 1.2 1.2 0 0 1-.663-.038.7.7 0 0 1-.303-.253l.26-.213a1 1 0 0 0 .188.148.5.5 0 0 0 .253.065.488.488 0 0 0 .251-.054.3.3 0 0 0 .085-.075.2.2 0 0 0 .032-.1.17.17 0 0 0-.048-.127.3.3 0 0 0-.115-.078.7.7 0 0 0-.14-.047q-.075-.017-.135-.03a3 3 0 0 1-.211-.06.6.6 0 0 1-.177-.092.5.5 0 0 1-.122-.145.5.5 0 0 1-.047-.22.5.5 0 0 1 .215-.421.7.7 0 0 1 .223-.102.945.945 0 0 1 .603.034.6.6 0 0 1 .27.23l-.27.204zM60.08 30.417h-.495v.824q-.001.076.004.15a.4.4 0 0 0 .029.135.23.23 0 0 0 .074.095.27.27 0 0 0 .153.036q.06.001.126-.01a.4.4 0 0 0 .119-.042v.315a.5.5 0 0 1-.161.048 1 1 0 0 1-.15.012.7.7 0 0 1-.308-.056.4.4 0 0 1-.163-.142.5.5 0 0 1-.06-.197 2 2 0 0 1-.01-.22v-.948h-.398v-.297h.398v-.51h.343v.51h.495v.297zM60.434 29.464q0-.1.074-.177a.247.247 0 0 1 .356 0q.073.075.074.177 0 .105-.074.179a.246.246 0 0 1-.356 0 .24.24 0 0 1-.074-.179m.08.653h.344v1.815h-.344zM62.341 30.417h-.494v.824q0 .076.002.15.006.075.03.135.026.057.077.095a.27.27 0 0 0 .152.036q.06.001.127-.01a.3.3 0 0 0 .118-.042v.315a.5.5 0 0 1-.158.048 1 1 0 0 1-.151.012.7.7 0 0 1-.308-.056.4.4 0 0 1-.16-.142.5.5 0 0 1-.063-.197 3 3 0 0 1-.01-.22v-.948h-.398v-.297h.398v-.51h.346v.51h.494v.297zM64.354 31.934h-.344v-.278h-.008a.5.5 0 0 1-.227.234.7.7 0 0 1-.372.09.7.7 0 0 1-.25-.04.56.56 0 0 1-.357-.342.9.9 0 0 1-.052-.311v-1.17h.346v1.073q-.001.127.034.217.033.089.09.145a.3.3 0 0 0 .133.08.545.545 0 0 0 .356-.01.4.4 0 0 0 .16-.108.5.5 0 0 0 .107-.19.8.8 0 0 0 .038-.27v-.935h.344v1.815zM65.81 30.417h-.494v.824q0 .076.006.15a.4.4 0 0 0 .03.135.23.23 0 0 0 .074.095.27.27 0 0 0 .15.036q.061.001.127-.01a.3.3 0 0 0 .121-.042v.315a.5.5 0 0 1-.159.048 1 1 0 0 1-.152.012.7.7 0 0 1-.308-.056.4.4 0 0 1-.16-.142.5.5 0 0 1-.063-.197q-.007-.111-.008-.22v-.948h-.398v-.297h.398v-.51h.344v.51h.494v.297zM66.475 31.151q0 .118.052.217t.137.167q.082.07.195.107.11.039.23.038.162 0 .278-.075a1 1 0 0 0 .22-.198l.26.198q-.288.372-.805.372-.214-.001-.39-.072a.853.853 0 0 1-.478-.502 1.1 1.1 0 0 1-.067-.378 1 1 0 0 1 .266-.681.9.9 0 0 1 .297-.2.9.9 0 0 1 .376-.074.9.9 0 0 1 .408.085q.164.085.273.219.108.136.155.307.048.172.048.346v.124h-1.457zm1.09-.275a.8.8 0 0 0-.035-.21.5.5 0 0 0-.098-.168.4.4 0 0 0-.163-.11.6.6 0 0 0-.23-.04.53.53 0 0 0-.407.172.6.6 0 0 0-.113.171.45.45 0 0 0-.04.185h1.087zM13.796 19.712a7.267 7.267 0 0 1-7.258-7.26c0-1.019.211-1.987.591-2.867 1.113-2.58 3.683-4.393 6.667-4.393a7.27 7.27 0 0 1 6.668 4.393l4.768-2.052C23.322 3.107 18.914 0 13.794 0S4.268 3.107 2.357 7.533a12.4 12.4 0 0 0-1.015 4.917c0 1.746.364 3.408 1.015 4.917 1.91 4.427 6.317 7.533 11.437 7.533s9.527-3.106 11.438-7.533l-4.768-2.052c-1.113 2.58-3.684 4.393-6.668 4.393zM56.152 19.712a7.267 7.267 0 0 1-7.258-7.26c0-1.019.21-1.987.59-2.867 1.114-2.58 3.684-4.393 6.668-4.393a7.27 7.27 0 0 1 6.667 4.393l4.769-2.052C65.677 3.107 61.27 0 56.15 0s-9.527 3.107-11.438 7.533a12.4 12.4 0 0 0-1.015 4.917c0 1.746.364 3.408 1.015 4.917C46.623 21.794 51.03 24.9 56.15 24.9s9.527-3.106 11.438-7.533l-4.769-2.052c-1.113 2.58-3.683 4.393-6.667 4.393zM38.816 16.893l.034-.054c.35-.554.649-1.147.89-1.762l-2.305-2.638c-.038.142-.08.299-.129.462l-.018.062c-.14.462-.305.902-.49 1.306l-.056.123-2.78-3.304a9 9 0 0 0-.443-.492 6 6 0 0 1-.485-.575 3.5 3.5 0 0 1-.39-.669 2 2 0 0 1-.162-.816q0-.48.293-.825.3-.351.846-.352.468.001.758.331.286.33.245.816a1.6 1.6 0 0 1-.105.404 1 1 0 0 1-.134.24l1.868 2.191.18-.176c.349-.356.646-.726.883-1.101a3.5 3.5 0 0 0 .533-1.895c0-.569-.113-1.081-.332-1.523a3.4 3.4 0 0 0-.894-1.124 4 4 0 0 0-1.318-.697 5.3 5.3 0 0 0-1.603-.24c-.666 0-1.287.091-1.847.27a4.2 4.2 0 0 0-1.445.774 3.5 3.5 0 0 0-.932 1.238 4 4 0 0 0-.334 1.651q0 .346.066.685.068.343.24.744.172.406.462.876c.193.313.446.675.755 1.075l.052.068-.068.053c-.346.269-.671.564-.966.878a6.4 6.4 0 0 0-.78 1.02q-.335.548-.529 1.18c-.126.418-.19.876-.19 1.36 0 .647.122 1.218.361 1.698q.36.722 1.017 1.198c.438.317.973.558 1.59.717.62.161 1.32.241 2.075.241.567 0 .987-.036 1.359-.114a11.2 11.2 0 0 0 2.242-.76l.06-.028.758.91h4.08l-2.907-3.424zm-4.02.171-.023.008-.07.034c-.202.1-.734.366-1.452.43a1.922 1.922 0 0 1-.888-.133 1.3 1.3 0 0 1-.53-.355 1.2 1.2 0 0 1-.253-.484q-.06-.255-.06-.478c0-.366.096-.704.287-1.003q.278-.438.677-.816l.066-.062 2.273 2.729.064.084-.088.048z"/></g><defs><clipPath id="a"><path fill="#fff" d="M0 0h68v32H0z"/></clipPath></defs></svg>