<svg width="96" height="24" viewBox="0 0 96 24" fill="none" xmlns="http://www.w3.org/2000/svg">
<g clip-path="url(#clip0_194_1279)">
<path d="M96 0.894409V3.78824H66.2683C66.3924 3.36732 66.4563 2.92009 66.4563 2.46159C66.4563 1.91289 66.3661 1.38298 66.193 0.894409H96Z" fill="white"/>
<path d="M3.38545 3.78824V12.7704H10.619V15.6642H3.38545V23.5377H0V0.894409H57.041C56.868 1.38298 56.7777 1.91289 56.7777 2.46159C56.7777 2.92009 56.8417 3.36732 56.9658 3.78824H3.38545Z" fill="white"/>
<path d="M17.1379 6.87744H21.0989L27.1099 23.5339H23.5101L22.3778 20.1064H15.9154L14.817 23.5339H11.2058L17.1379 6.87744ZM19.1315 10.2147L16.8219 17.3065H21.4525L19.1315 10.2147Z" fill="white"/>
<path d="M28.829 23.5339V6.87744H32.4175L39.1847 18.3212V6.87744H42.5701V23.5339H39.0267L32.2106 12.0901V23.5339H28.8252H28.829Z" fill="white"/>
<path d="M49.4651 23.5339V9.85019H44.5186V6.87744H57.8084V9.85019H52.8957V23.5339H49.4651Z" fill="white"/>
<path d="M63.3304 6.98645V23.5377H59.9036V6.98645C60.434 7.18939 61.0133 7.29838 61.6151 7.29838C62.217 7.29838 62.7963 7.18939 63.3304 6.98645Z" fill="white"/>
<path d="M66.9077 23.5339V6.87744H70.3383V13.7174L76.8459 6.87744H81.1341L74.4798 13.6159L81.736 23.5339H77.5493L72.1175 15.9122L70.3421 17.6748V23.5339H66.9115H66.9077Z" fill="white"/>
<path d="M82.4394 18.3889H85.8249C85.9527 19.3022 86.3251 19.9786 86.9458 20.4183C87.5627 20.8581 88.458 21.0798 89.6278 21.0798C90.6247 21.0798 91.3732 20.9032 91.881 20.5499C92.3851 20.1966 92.6409 19.6705 92.6409 18.9789C92.6409 17.968 91.1889 17.1337 88.2812 16.4685C88.2436 16.4609 88.2097 16.4534 88.1796 16.4459C88.1044 16.4309 87.9878 16.4046 87.8298 16.367C86.2762 16.0287 85.1666 15.6454 84.5008 15.2245C83.914 14.8487 83.4626 14.3413 83.1541 13.7024C82.8457 13.0673 82.6914 12.3119 82.6914 11.4475C82.6914 9.82768 83.2406 8.58371 84.3428 7.71932C85.4449 6.85493 87.0361 6.42273 89.12 6.42273C91.0685 6.42273 92.5882 6.88123 93.6866 7.802C94.785 8.72276 95.3643 10.0193 95.4245 11.6918H92.1293C92.0691 10.8837 91.7607 10.2711 91.2002 9.85023C90.6435 9.42931 89.846 9.21509 88.8116 9.21509C87.9125 9.21509 87.2204 9.39172 86.7352 9.74124C86.2499 10.0908 86.0054 10.5906 86.0054 11.2408C86.0054 12.124 86.9533 12.7816 88.8454 13.2214C89.357 13.3416 89.7595 13.4356 90.0454 13.5032C91.2604 13.8114 92.1218 14.0519 92.6334 14.2286C93.1412 14.4014 93.5851 14.5931 93.965 14.8036C94.6458 15.1794 95.1536 15.6792 95.4922 16.3031C95.8307 16.927 96 17.6711 96 18.5355C96 20.268 95.4132 21.6135 94.2471 22.568C93.0772 23.5226 91.4296 23.9999 89.3006 23.9999C87.1715 23.9999 85.5578 23.5151 84.3653 22.5417C83.1729 21.5684 82.5334 20.1853 82.4394 18.3927V18.3889Z" fill="white"/>
<path d="M61.6151 4.6827C62.8429 4.6827 63.8383 3.68827 63.8383 2.46159C63.8383 1.2349 62.8429 0.240479 61.6151 0.240479C60.3874 0.240479 59.392 1.2349 59.392 2.46159C59.392 3.68827 60.3874 4.6827 61.6151 4.6827Z" fill="white"/>
<path d="M96 0.653931V3.54776H66.2683C66.3924 3.12684 66.4563 2.67961 66.4563 2.22111C66.4563 1.67241 66.3661 1.1425 66.193 0.653931H96Z" fill="white"/>
<path d="M3.38545 3.54776V12.5299H10.619V15.4237H3.38545V23.2972H0V0.653931H57.041C56.868 1.1425 56.7777 1.67241 56.7777 2.22111C56.7777 2.67961 56.8417 3.12684 56.9658 3.54776H3.38545Z" fill="white"/>
<path d="M17.1379 6.63696H21.0989L27.1099 23.2934H23.5101L22.3778 19.8659H15.9154L14.817 23.2934H11.2058L17.1379 6.63696ZM19.1315 9.97426L16.8219 17.066H21.4525L19.1315 9.97426Z" fill="white"/>
<path d="M28.829 23.2972V6.63696H32.4175L39.1847 18.0807V6.63696H42.5701V23.2934H39.0267L32.2106 11.8496V23.2934H28.8252L28.829 23.2972Z" fill="white"/>
<path d="M49.4651 23.2972V9.6135H44.5186V6.64075H57.8084V9.6135H52.8957V23.2972H49.4651Z" fill="white"/>
<path d="M63.3304 6.74597V23.2972H59.9036V6.74597C60.434 6.94892 61.0133 7.0579 61.6151 7.0579C62.217 7.0579 62.7963 6.94892 63.3304 6.74597Z" fill="white"/>
<path d="M66.9077 23.2972V6.63696H70.3383V13.4769L76.8459 6.63696H81.1341L74.4798 13.3755L81.736 23.2934H77.5493L72.1175 15.6717L70.3421 17.4343V23.2934H66.9115L66.9077 23.2972Z" fill="white"/>
<path d="M82.4394 18.1522H85.8249C85.9527 19.0655 86.3251 19.7419 86.9458 20.1817C87.5627 20.6214 88.458 20.8431 89.6278 20.8431C90.6247 20.8431 91.3732 20.6665 91.881 20.3132C92.3851 19.9599 92.6409 19.4338 92.6409 18.7423C92.6409 17.7313 91.1889 16.897 88.2812 16.2318C88.2436 16.2242 88.2097 16.2167 88.1796 16.2092C88.1044 16.1942 87.9878 16.1679 87.8298 16.1303C86.2762 15.792 85.1666 15.4087 84.5008 14.9878C83.914 14.612 83.4626 14.1046 83.1541 13.4657C82.8457 12.8306 82.6914 12.0752 82.6914 11.2108C82.6914 9.59098 83.2406 8.34701 84.3428 7.48262C85.4449 6.61823 87.0361 6.18604 89.12 6.18604C91.0685 6.18604 92.5882 6.64454 93.6866 7.5653C94.785 8.48607 95.3643 9.78265 95.4245 11.4551H92.1293C92.0691 10.647 91.7607 10.0345 91.2002 9.61353C90.6435 9.19261 89.846 8.97839 88.8116 8.97839C87.9125 8.97839 87.2204 9.15503 86.7352 9.50454C86.2499 9.85406 86.0054 10.3539 86.0054 11.0041C86.0054 11.8873 86.9533 12.5449 88.8454 12.9847C89.357 13.1049 89.7595 13.1989 90.0454 13.2665C91.2604 13.5747 92.1218 13.8152 92.6334 13.9919C93.1412 14.1647 93.5851 14.3564 93.965 14.5669C94.6458 14.9427 95.1536 15.4425 95.4922 16.0664C95.8307 16.6903 96 17.4344 96 18.2988C96 20.0313 95.4132 21.3768 94.2471 22.3314C93.0772 23.2859 91.4296 23.7632 89.3006 23.7632C87.1715 23.7632 85.5578 23.2784 84.3653 22.305C83.1729 21.3317 82.5334 19.9486 82.4394 18.156V18.1522Z" fill="white"/>
<path d="M61.6151 4.44222C62.8429 4.44222 63.8383 3.44779 63.8383 2.22111C63.8383 0.994424 62.8429 0 61.6151 0C60.3874 0 59.392 0.994424 59.392 2.22111C59.392 3.44779 60.3874 4.44222 61.6151 4.44222Z" fill="white"/>
<path d="M96 0.653931V3.54776H66.2683C66.3924 3.12684 66.4563 2.67961 66.4563 2.22111C66.4563 1.67241 66.3661 1.1425 66.193 0.653931H96Z" fill="#374151"/>
<path d="M3.38545 3.54776V12.5299H10.619V15.4237H3.38545V23.2972H0V0.653931H57.041C56.868 1.1425 56.7777 1.67241 56.7777 2.22111C56.7777 2.67961 56.8417 3.12684 56.9658 3.54776H3.38545Z" fill="#374151"/>
<path d="M17.1379 6.63696H21.0989L27.1099 23.2934H23.5101L22.3778 19.8659H15.9154L14.817 23.2934H11.2058L17.1379 6.63696ZM19.1315 9.97426L16.8219 17.066H21.4525L19.1315 9.97426Z" fill="#374151"/>
<path d="M28.829 23.2972V6.63696H32.4175L39.1847 18.0807V6.63696H42.5701V23.2934H39.0267L32.2106 11.8496V23.2934H28.8252L28.829 23.2972Z" fill="#374151"/>
<path d="M49.4651 23.2972V9.6135H44.5186V6.64075H57.8084V9.6135H52.8957V23.2972H49.4651Z" fill="#374151"/>
<path d="M63.3304 6.74597V23.2972H59.9036V6.74597C60.434 6.94892 61.0133 7.0579 61.6151 7.0579C62.217 7.0579 62.7963 6.94892 63.3304 6.74597Z" fill="#374151"/>
<path d="M66.9077 23.2972V6.63696H70.3383V13.4769L76.8459 6.63696H81.1341L74.4798 13.3755L81.736 23.2934H77.5493L72.1175 15.6717L70.3421 17.4343V23.2934H66.9115L66.9077 23.2972Z" fill="#374151"/>
<path d="M82.4394 18.1522H85.8249C85.9527 19.0655 86.3251 19.7419 86.9458 20.1817C87.5627 20.6214 88.458 20.8431 89.6278 20.8431C90.6247 20.8431 91.3732 20.6665 91.881 20.3132C92.3851 19.9599 92.6409 19.4338 92.6409 18.7423C92.6409 17.7313 91.1889 16.897 88.2812 16.2318C88.2436 16.2242 88.2097 16.2167 88.1796 16.2092C88.1044 16.1942 87.9878 16.1679 87.8298 16.1303C86.2762 15.792 85.1666 15.4087 84.5008 14.9878C83.914 14.612 83.4626 14.1046 83.1541 13.4657C82.8457 12.8306 82.6914 12.0752 82.6914 11.2108C82.6914 9.59098 83.2406 8.34701 84.3428 7.48262C85.4449 6.61823 87.0361 6.18604 89.12 6.18604C91.0685 6.18604 92.5882 6.64454 93.6866 7.5653C94.785 8.48607 95.3643 9.78265 95.4245 11.4551H92.1293C92.0691 10.647 91.7607 10.0345 91.2002 9.61353C90.6435 9.19261 89.846 8.97839 88.8116 8.97839C87.9125 8.97839 87.2204 9.15503 86.7352 9.50454C86.2499 9.85406 86.0054 10.3539 86.0054 11.0041C86.0054 11.8873 86.9533 12.5449 88.8454 12.9847C89.357 13.1049 89.7595 13.1989 90.0454 13.2665C91.2604 13.5747 92.1218 13.8152 92.6334 13.9919C93.1412 14.1647 93.5851 14.3564 93.965 14.5669C94.6458 14.9427 95.1536 15.4425 95.4922 16.0664C95.8307 16.6903 96 17.4344 96 18.2988C96 20.0313 95.4132 21.3768 94.2471 22.3314C93.0772 23.2859 91.4296 23.7632 89.3006 23.7632C87.1715 23.7632 85.5578 23.2784 84.3653 22.305C83.1729 21.3317 82.5334 19.9486 82.4394 18.156V18.1522Z" fill="#374151"/>
<path d="M61.6151 4.44222C62.8429 4.44222 63.8383 3.44779 63.8383 2.22111C63.8383 0.994424 62.8429 0 61.6151 0C60.3874 0 59.392 0.994424 59.392 2.22111C59.392 3.44779 60.3874 4.44222 61.6151 4.44222Z" fill="#374151"/>
</g>
<defs>
<clipPath id="clip0_194_1279">
<rect width="96" height="24" fill="white"/>
</clipPath>
</defs>
</svg>
