<svg width="260" height="54" viewBox="0 0 260 54" fill="none" xmlns="http://www.w3.org/2000/svg">
<rect width="260" height="54" fill="white"/>
<g clip-path="url(#clip0_7587_6835)">
<path d="M31.9879 42.7742C27.6844 47.0777 20.6427 47.0777 16.3392 42.7742L8.38939 34.8244C4.0859 30.5209 4.0859 23.4792 8.38939 19.1757L16.3392 11.2259C20.6427 6.92242 27.6844 6.92242 31.9879 11.2259L39.9377 19.1757C44.2412 23.4792 44.2412 30.5209 39.9377 34.8244L31.9879 42.7742Z" fill="#DA291C"/>
<path d="M19.4484 38.6794C18.816 38.6794 18.3001 38.1847 18.2754 37.5523C18.2613 37.2378 18.3708 36.9375 18.5863 36.7078C18.7983 36.4782 19.088 36.3404 19.4025 36.3298C20.0491 36.298 20.6003 36.8068 20.625 37.4569C20.6533 38.1035 20.148 38.6547 19.4979 38.6794C19.4838 38.6794 19.4661 38.6794 19.4484 38.6794Z" fill="white"/>
<path d="M23.7272 16.9781C23.0806 16.9781 22.5648 17.1795 22.1478 17.5964C21.2469 18.4939 20.7734 20.3418 20.8158 22.8044C20.8653 25.8395 21.5896 31.793 23.9745 34.8599C24.3632 35.3545 24.7766 35.7538 25.2112 36.04C25.6316 36.3191 26.1015 36.5876 26.84 36.5876C27.0378 36.5876 27.2534 36.5664 27.4795 36.5275C28.8469 36.199 30.564 34.6761 31.8395 32.648C32.0338 32.3407 32.3695 32.1534 32.7334 32.1534C32.9313 32.1534 33.1256 32.2099 33.2917 32.3159C33.5319 32.4643 33.6945 32.701 33.7581 32.9731C33.8217 33.2487 33.7722 33.5314 33.6238 33.7681C32.0126 36.3332 29.8821 38.1352 27.9282 38.5839C27.9212 38.5874 27.9 38.591 27.8788 38.5945C27.5219 38.6616 27.1686 38.6934 26.8329 38.6934C25.5715 38.6934 24.6847 38.2129 24.0523 37.796C23.4269 37.3826 22.8404 36.8279 22.3139 36.153C18.9503 31.8389 18.7206 23.7478 18.7065 22.8398C18.6711 20.688 18.9785 17.7696 20.6603 16.0983C21.4801 15.2857 22.5082 14.8723 23.7166 14.8723H23.9109C25.1228 14.8723 26.151 15.2857 26.9707 16.0983C28.6525 17.766 28.9635 20.6845 28.9246 22.8398C28.8857 25.0834 28.4759 29.4293 26.151 33.3229C25.9602 33.6409 25.6139 33.8352 25.243 33.8352C25.0522 33.8352 24.8649 33.7822 24.7024 33.6868C24.2042 33.39 24.0417 32.7399 24.3384 32.2417C25.9673 29.5141 26.7552 26.5179 26.8152 22.8009C26.8576 20.3382 26.3842 18.4904 25.4832 17.5929C25.0663 17.1795 24.5504 16.9746 23.9074 16.9746H23.7272V16.9781Z" fill="white"/>
<path d="M136.141 20.3311H140.165V33.5984H136.141V20.3311Z" fill="#DA291C"/>
<path d="M158.305 32.4713C158.305 32.7822 158.199 33.0437 157.987 33.2662C157.775 33.4853 157.467 33.5948 157.068 33.5948H154.934C154.446 33.5948 154.075 33.4888 153.821 33.2733C153.567 33.0578 153.33 32.7857 153.118 32.4536L147.221 23.1824V33.5948H143.197V21.4546C143.197 21.1472 143.299 20.8822 143.504 20.6596C143.709 20.4406 144.013 20.3311 144.412 20.3311H146.751C147.189 20.3311 147.546 20.4335 147.829 20.642C148.108 20.8504 148.338 21.1013 148.511 21.3981L154.277 30.6693V20.3311H158.301V32.4713H158.305Z" fill="#DA291C"/>
<path d="M176.618 32.4713C176.618 32.7822 176.512 33.0437 176.3 33.2662C176.088 33.4853 175.78 33.5948 175.381 33.5948H173.247C172.759 33.5948 172.388 33.4888 172.134 33.2733C171.879 33.0578 171.643 32.7857 171.431 32.4536L165.534 23.1824V33.5948H161.509V21.4546C161.509 21.1472 161.612 20.8822 161.817 20.6596C162.022 20.4406 162.326 20.3311 162.725 20.3311H165.064C165.502 20.3311 165.859 20.4335 166.142 20.642C166.424 20.8504 166.65 21.1013 166.823 21.3981L172.59 30.6693V20.3311H176.614V32.4713H176.618Z" fill="#DA291C"/>
<path d="M195.785 26.9629C195.785 27.9134 195.609 28.825 195.252 29.7012C194.895 30.5739 194.372 31.3406 193.68 32.0013C192.987 32.6621 192.136 33.1885 191.125 33.5807C190.115 33.9729 188.952 34.1707 187.641 34.1707C186.306 34.1707 185.129 33.9764 184.112 33.5807C183.094 33.185 182.242 32.6621 181.557 32.0013C180.872 31.3406 180.356 30.5739 180.013 29.7012C179.67 28.8285 179.497 27.9169 179.497 26.9629C179.497 26.009 179.663 25.1009 179.992 24.2247C180.324 23.352 180.826 22.5853 181.501 21.9245C182.175 21.2638 183.023 20.7374 184.048 20.3452C185.073 19.953 186.27 19.7551 187.641 19.7551C189.012 19.7551 190.213 19.9495 191.235 20.3452C192.259 20.7374 193.107 21.2638 193.782 21.9245C194.457 22.5853 194.959 23.352 195.287 24.2247C195.623 25.1009 195.785 26.0125 195.785 26.9629ZM187.645 21.2391C187.019 21.2391 186.451 21.391 185.931 21.6949C185.412 21.9987 184.967 22.4121 184.592 22.935C184.218 23.458 183.928 24.0657 183.723 24.7547C183.518 25.4436 183.416 26.1821 183.416 26.9665C183.416 27.7508 183.518 28.4893 183.723 29.1783C183.928 29.8673 184.218 30.4714 184.592 30.9873C184.967 31.5031 185.412 31.913 185.931 32.2098C186.447 32.5066 187.019 32.655 187.645 32.655C188.27 32.655 188.839 32.5066 189.358 32.2098C189.878 31.913 190.319 31.5067 190.687 30.9873C191.054 30.4714 191.341 29.8673 191.549 29.1783C191.754 28.4893 191.856 27.7508 191.856 26.9665C191.856 26.1821 191.754 25.4436 191.549 24.7547C191.344 24.0657 191.054 23.458 190.687 22.935C190.319 22.4121 189.874 21.9987 189.358 21.6949C188.839 21.391 188.267 21.2391 187.645 21.2391Z" fill="#DA291C"/>
<path d="M207.208 32.4888C207.071 32.7997 206.852 33.0577 206.555 33.2732C206.254 33.4887 205.905 33.5947 205.505 33.5947H203.672C203.283 33.5947 202.983 33.517 202.764 33.3615C202.545 33.2061 202.35 32.9587 202.174 32.6125L196.202 20.3274H200.658L205.413 30.9377L210.113 20.3274H212.809L207.208 32.4888Z" fill="#DA291C"/>
<path d="M223.776 33.5948L222.43 30.9378H214.791L213.423 33.5948H210.802L217.522 21.2038C217.66 20.9423 217.85 20.7303 218.094 20.5713C218.338 20.4123 218.621 20.3311 218.946 20.3311H220.292C220.603 20.3311 220.889 20.4123 221.143 20.5713C221.398 20.7303 221.596 20.9423 221.734 21.2038L227.987 33.5948H223.776ZM215.596 29.3691H221.624L219.342 24.8395C219.243 24.6734 219.137 24.5215 219.034 24.3837C218.928 24.2459 218.794 24.1788 218.631 24.1788C218.455 24.1788 218.306 24.2494 218.183 24.3943C218.059 24.5356 217.964 24.6875 217.903 24.8395L215.596 29.3691Z" fill="#DA291C"/>
<path d="M235.365 21.9175V33.5948H231.319V21.9175H226.115V20.3311H240.569V21.9175H235.365Z" fill="#DA291C"/>
<path d="M254.723 25.751V27.3198H246.505V31.065C246.505 31.1958 246.512 31.3194 246.523 31.4396C246.537 31.5597 246.572 31.6586 246.636 31.7434C246.699 31.8282 246.795 31.8918 246.926 31.9377C247.056 31.9837 247.236 32.0084 247.459 32.0084H254.836V33.5948H244.502C244.216 33.5948 243.951 33.5772 243.707 33.5418C243.463 33.5065 243.251 33.4217 243.071 33.291C242.891 33.1603 242.749 32.9659 242.65 32.7115C242.551 32.4571 242.502 32.1073 242.502 31.6692V22.2567C242.502 21.8291 242.555 21.4864 242.661 21.232C242.767 20.9776 242.908 20.7798 243.081 20.642C243.254 20.5042 243.456 20.4194 243.682 20.3841C243.908 20.3487 244.138 20.3311 244.375 20.3311H254.84V21.9175H247.558C247.198 21.9175 246.929 21.9705 246.763 22.0765C246.597 22.1825 246.512 22.4439 246.512 22.8609V25.751H254.723Z" fill="#DA291C"/>
<path d="M73.189 19.8047C67.981 19.8047 64.8647 23.027 64.8647 27.0019C64.8647 30.9768 67.981 34.1991 73.189 34.1991C78.4041 34.1991 81.5275 30.9768 81.5275 27.0019C81.5275 23.027 78.4041 19.8047 73.189 19.8047ZM73.189 32.648C70.6981 32.648 68.7972 30.1147 68.7972 26.9984C68.7972 23.8785 70.6981 21.3522 73.189 21.3522C75.6906 21.3522 77.5879 23.8785 77.5879 26.9984C77.5879 30.1147 75.6941 32.648 73.189 32.648Z" fill="#DA291C"/>
<path d="M82.2412 21.9281H87.7248V33.5949H91.8551V21.9281H96.4872V20.3381H82.2412V21.9281Z" fill="#DA291C"/>
<path d="M97.9924 21.9281H102.617V33.5949H106.748V21.9281H112.242V20.3381H97.9924V21.9281Z" fill="#DA291C"/>
<path d="M56.6287 31.2134V20.3381H52.6644V32.019C52.6644 32.8917 53.3711 33.5949 54.2438 33.5949H64.3842V32.0014H57.4237C56.9926 32.0014 56.6287 31.6551 56.6287 31.2134Z" fill="#DA291C"/>
<path d="M114.489 21.914V32.019C114.489 32.8917 115.199 33.5949 116.072 33.5949H126.88V32.0296H119.252C118.81 32.0296 118.453 31.6763 118.453 31.2346V27.334H126.76V25.7793H118.453V22.6877C118.453 22.2532 118.807 21.8998 119.252 21.8998H126.877V20.3381H116.065C115.199 20.3381 114.489 21.0377 114.489 21.914Z" fill="#DA291C"/>
</g>
<defs>
<clipPath id="clip0_7587_6835">
<rect width="249.673" height="38" fill="white" transform="translate(5.16354 8)"/>
</clipPath>
</defs>
</svg>
