<svg width="20" height="20" viewBox="0 0 20 20" fill="none" xmlns="http://www.w3.org/2000/svg">
<g filter="url(#filter0_d_500_358)">
<path d="M3 6C3 3.79086 4.79086 2 7 2H13C15.2091 2 17 3.79086 17 6V12C17 14.2091 15.2091 16 13 16H7C4.79086 16 3 14.2091 3 12V6Z" fill="white"/>
<path d="M13 1.5L13.2314 1.50586C15.6092 1.62632 17.5 3.59234 17.5 6V12C17.5 14.4853 15.4853 16.5 13 16.5H7C4.51472 16.5 2.5 14.4853 2.5 12V6L2.50586 5.76855C2.62632 3.39083 4.59234 1.5 7 1.5H13Z" stroke="#CBD5E1"/>
</g>
<defs>
<filter id="filter0_d_500_358" x="0" y="0" width="20" height="20" filterUnits="userSpaceOnUse" color-interpolation-filters="sRGB">
<feFlood flood-opacity="0" result="BackgroundImageFix"/>
<feColorMatrix in="SourceAlpha" type="matrix" values="0 0 0 0 0 0 0 0 0 0 0 0 0 0 0 0 0 0 127 0" result="hardAlpha"/>
<feOffset dy="1"/>
<feGaussianBlur stdDeviation="1"/>
<feComposite in2="hardAlpha" operator="out"/>
<feColorMatrix type="matrix" values="0 0 0 0 0 0 0 0 0 0 0 0 0 0 0 0 0 0 0.05 0"/>
<feBlend mode="normal" in2="BackgroundImageFix" result="effect1_dropShadow_500_358"/>
<feBlend mode="normal" in="SourceGraphic" in2="effect1_dropShadow_500_358" result="shape"/>
</filter>
</defs>
</svg>
